<svg width="45" height="45" fill="none" xmlns="http://www.w3.org/2000/svg"><path d="M30.938 0H14.063C6.296 0 0 6.297 0 14.063v16.874C0 38.703 6.297 45 14.063 45h16.874C38.703 45 45 38.703 45 30.937V14.063C45 6.298 38.703 0 30.937 0zm9.843 30.938c0 5.428-4.415 9.843-9.843 9.843H14.063c-5.429 0-9.844-4.415-9.844-9.843V14.063c0-5.429 4.415-9.844 9.843-9.844h16.876c5.428 0 9.843 4.415 9.843 9.843v16.876z" fill="#fff"/><path d="M22.5 11.25c-6.213 0-11.25 5.037-11.25 11.25s5.037 11.25 11.25 11.25 11.25-5.037 11.25-11.25-5.037-11.25-11.25-11.25zm0 18.281c-3.876 0-7.031-3.155-7.031-7.031 0-3.878 3.155-7.031 7.031-7.031s7.031 3.153 7.031 7.031c0 3.876-3.155 7.031-7.031 7.031zm12.09-17.625a1.5 1.5 0 100-2.998 1.5 1.5 0 000 2.998z" fill="#fff"/></svg>