<svg width="45" height="24" fill="none" xmlns="http://www.w3.org/2000/svg"><path d="M44.761 21.675a2.749 2.749 0 00-.152-.274c-.78-1.315-2.273-2.928-4.475-4.84l-.047-.045-.023-.021-.024-.022h-.023c-1-.89-1.633-1.49-1.898-1.796-.485-.584-.593-1.175-.328-1.775.187-.452.89-1.408 2.108-2.868a164.64 164.64 0 001.523-1.862c2.703-3.358 3.874-5.504 3.515-6.439l-.14-.218c-.094-.132-.336-.252-.726-.362-.39-.11-.89-.127-1.5-.054l-6.747.043c-.11-.036-.266-.033-.469.011l-.305.066-.117.055-.093.066a.988.988 0 00-.258.23 1.476 1.476 0 00-.234.383 34.779 34.779 0 01-2.507 4.928 46.397 46.397 0 01-1.594 2.354c-.484.664-.89 1.154-1.218 1.467a8.324 8.324 0 01-.89.756c-.266.19-.469.27-.61.24a18.1 18.1 0 01-.398-.087 1.5 1.5 0 01-.527-.536c-.133-.227-.222-.512-.27-.855a8.798 8.798 0 01-.081-.887c-.008-.248-.004-.598.012-1.051.016-.453.023-.76.023-.92 0-.555.012-1.157.035-1.807.024-.65.043-1.164.059-1.544.016-.38.023-.781.023-1.204 0-.424-.028-.756-.082-.997a3.253 3.253 0 00-.245-.7 1.207 1.207 0 00-.48-.526 2.819 2.819 0 00-.786-.296C23.984.113 22.93.018 21.65.003c-2.905-.029-4.772.146-5.6.526-.327.16-.624.38-.89.657-.281.321-.32.496-.117.525.937.132 1.6.446 1.991.942l.141.263c.11.19.219.526.328 1.008.11.481.18 1.014.21 1.598.079 1.066.079 1.979 0 2.738a30.57 30.57 0 01-.222 1.774c-.07.423-.175.766-.316 1.03-.14.262-.234.422-.281.48a.393.393 0 01-.117.11c-.203.073-.414.11-.633.11-.219 0-.484-.102-.797-.307a5.498 5.498 0 01-.972-.843c-.336-.358-.714-.858-1.136-1.5a25.671 25.671 0 01-1.312-2.278l-.375-.635a53.464 53.464 0 01-.96-1.785 33.318 33.318 0 01-1.078-2.267 1.458 1.458 0 00-.563-.7l-.117-.067a1.642 1.642 0 00-.375-.186 2.622 2.622 0 00-.539-.142l-6.42.043c-.655 0-1.1.14-1.335.417l-.094.131c-.046.073-.07.19-.07.35 0 .161.047.358.14.592a70.328 70.328 0 003.058 5.957c1.101 1.913 2.058 3.454 2.87 4.62a54.688 54.688 0 002.484 3.308c.843 1.037 1.402 1.701 1.675 1.993.273.293.488.511.644.657l.586.526c.375.35.925.77 1.652 1.259.726.49 1.53.971 2.413 1.446.883.474 1.91.861 3.081 1.16 1.172.3 2.312.42 3.42.362h2.695c.547-.044.96-.205 1.242-.482l.093-.11c.063-.087.122-.222.176-.404.055-.183.082-.384.082-.603a6.763 6.763 0 01.152-1.697c.117-.503.25-.883.399-1.139.149-.255.316-.47.503-.645.188-.176.321-.282.4-.318.077-.037.14-.062.186-.077.375-.116.816-.003 1.324.34a7.58 7.58 0 011.43 1.27c.445.504.98 1.07 1.604 1.697.625.628 1.172 1.095 1.64 1.402l.469.263c.313.175.719.336 1.219.482.499.146.936.183 1.311.11l5.998-.088c.593 0 1.055-.092 1.382-.274.328-.182.523-.384.586-.602.063-.22.066-.468.012-.745-.055-.277-.11-.47-.165-.58z" fill="#fff"/></svg>